<svg width="307" height="320" viewBox="0 0 307 320" fill="none" xmlns="http://www.w3.org/2000/svg">
<g filter="url(#filter0_b_4_53)">
<mask id="path-1-outside-1_4_53" maskUnits="userSpaceOnUse" x="-5.33449" y="-7.39171" width="321.067" height="332.133" fill="black">
<rect fill="white" x="-5.33449" y="-7.39171" width="321.067" height="332.133"/>
<path d="M213.86 272.482C200.814 282.139 187.808 288.068 174.842 290.268C161.875 292.469 149.757 291.291 138.488 286.737C127.219 282.182 117.617 274.545 109.681 263.824C103.562 255.557 99.88 246.936 98.6347 237.961C97.4062 228.874 97.8603 219.29 99.9968 209.212C102.15 199.02 105.24 188.136 109.266 176.558L122.165 134.02C125.059 126.18 126.631 118.918 126.882 112.234C127.198 105.503 124.846 98.7464 119.826 91.9652C116.097 86.9277 110.26 83.701 102.314 82.285C94.4324 80.8213 86.9074 82.7426 79.7387 88.049C74.7012 91.7778 71.2011 96.368 69.2383 101.82C67.2924 107.159 66.6795 112.611 67.3998 118.176C68.1369 123.628 70.0352 128.421 73.0948 132.555C76.5368 137.205 81.2859 140.987 87.3422 143.902C93.4153 146.704 100.262 149.134 107.883 151.19C115.52 153.135 123.382 155.113 131.469 157.124L304.852 200.93L277.339 221.295L135.046 186.266C121.857 183.034 109.886 180.098 99.1358 177.459C88.3852 174.82 78.8687 171.417 70.5865 167.251C62.3042 163.085 55.2948 157.127 49.5581 149.377C42.961 140.465 39.1463 131.192 38.1141 121.559C37.0987 111.814 38.789 102.416 43.185 93.3633C47.5977 84.1988 54.6478 76.0311 64.3352 68.8603C74.281 61.4983 84.2724 57.1015 94.3094 55.6701C104.299 54.1741 113.573 55.1565 122.133 58.6173C130.645 62.0135 137.626 67.3928 143.076 74.7553C150.103 84.2489 153.841 94.2282 154.29 104.693C154.738 115.158 153.116 126.405 149.425 138.435L131.699 197.141C127.663 210.326 126.357 221.189 127.782 229.732C129.207 238.274 130.923 243.902 132.931 246.614C137.52 252.814 143.414 257.399 150.61 260.369C157.807 263.339 165.564 264.296 173.879 263.239C182.194 262.183 190.291 258.738 198.17 252.906C205.662 247.361 211.788 240.376 216.55 231.953C221.264 223.466 224.248 214.059 225.502 203.734C226.821 193.36 226.004 182.668 223.052 171.657C220.165 160.599 214.777 149.741 206.889 139.085L228.976 122.736C238.729 135.911 245.171 147.787 248.302 158.365C251.434 168.943 252.839 178 252.518 185.535C252.198 193.07 251.736 198.86 251.132 202.906C251.074 204.449 251.08 205.943 251.152 207.39C251.223 208.837 251.229 210.332 251.172 211.874C250.084 223.775 245.979 235.111 238.857 245.882C231.686 256.588 223.354 265.455 213.86 272.482Z"/>
</mask>
<path d="M213.86 272.482C200.814 282.139 187.808 288.068 174.842 290.268C161.875 292.469 149.757 291.291 138.488 286.737C127.219 282.182 117.617 274.545 109.681 263.824C103.562 255.557 99.88 246.936 98.6347 237.961C97.4062 228.874 97.8603 219.29 99.9968 209.212C102.15 199.02 105.24 188.136 109.266 176.558L122.165 134.02C125.059 126.18 126.631 118.918 126.882 112.234C127.198 105.503 124.846 98.7464 119.826 91.9652C116.097 86.9277 110.26 83.701 102.314 82.285C94.4324 80.8213 86.9074 82.7426 79.7387 88.049C74.7012 91.7778 71.2011 96.368 69.2383 101.82C67.2924 107.159 66.6795 112.611 67.3998 118.176C68.1369 123.628 70.0352 128.421 73.0948 132.555C76.5368 137.205 81.2859 140.987 87.3422 143.902C93.4153 146.704 100.262 149.134 107.883 151.19C115.52 153.135 123.382 155.113 131.469 157.124L304.852 200.93L277.339 221.295L135.046 186.266C121.857 183.034 109.886 180.098 99.1358 177.459C88.3852 174.82 78.8687 171.417 70.5865 167.251C62.3042 163.085 55.2948 157.127 49.5581 149.377C42.961 140.465 39.1463 131.192 38.1141 121.559C37.0987 111.814 38.789 102.416 43.185 93.3633C47.5977 84.1988 54.6478 76.0311 64.3352 68.8603C74.281 61.4983 84.2724 57.1015 94.3094 55.6701C104.299 54.1741 113.573 55.1565 122.133 58.6173C130.645 62.0135 137.626 67.3928 143.076 74.7553C150.103 84.2489 153.841 94.2282 154.29 104.693C154.738 115.158 153.116 126.405 149.425 138.435L131.699 197.141C127.663 210.326 126.357 221.189 127.782 229.732C129.207 238.274 130.923 243.902 132.931 246.614C137.52 252.814 143.414 257.399 150.61 260.369C157.807 263.339 165.564 264.296 173.879 263.239C182.194 262.183 190.291 258.738 198.17 252.906C205.662 247.361 211.788 240.376 216.55 231.953C221.264 223.466 224.248 214.059 225.502 203.734C226.821 193.36 226.004 182.668 223.052 171.657C220.165 160.599 214.777 149.741 206.889 139.085L228.976 122.736C238.729 135.911 245.171 147.787 248.302 158.365C251.434 168.943 252.839 178 252.518 185.535C252.198 193.07 251.736 198.86 251.132 202.906C251.074 204.449 251.08 205.943 251.152 207.39C251.223 208.837 251.229 210.332 251.172 211.874C250.084 223.775 245.979 235.111 238.857 245.882C231.686 256.588 223.354 265.455 213.86 272.482Z" fill="#A2A35C" fill-opacity="0.1"/>
<path d="M174.842 290.268L175.433 293.754L174.842 290.268ZM138.488 286.737L139.813 283.459L138.488 286.737ZM98.6347 237.961L95.1311 238.435L95.1328 238.447L98.6347 237.961ZM99.9968 209.212L103.455 209.945L103.456 209.942L99.9968 209.212ZM109.266 176.558L112.605 177.72L112.629 177.652L112.649 177.584L109.266 176.558ZM122.165 134.02L118.848 132.796L118.812 132.894L118.782 132.994L122.165 134.02ZM126.882 112.234L123.351 112.069L123.35 112.085L123.349 112.102L126.882 112.234ZM102.314 82.285L101.668 85.761L101.681 85.7634L101.694 85.7657L102.314 82.285ZM69.2383 101.82L72.5601 103.03L72.5648 103.017L69.2383 101.82ZM67.3998 118.176L63.8936 118.63L63.8949 118.64L63.8962 118.65L67.3998 118.176ZM87.3422 143.902L85.8091 147.087L85.8349 147.1L85.861 147.112L87.3422 143.902ZM107.883 151.19L106.962 154.604L106.986 154.61L107.01 154.616L107.883 151.19ZM131.469 157.124L132.335 153.696L132.322 153.693L131.469 157.124ZM304.852 200.93L306.955 203.772L312.955 199.331L305.718 197.502L304.852 200.93ZM277.339 221.295L276.494 224.728L278.108 225.125L279.443 224.137L277.339 221.295ZM135.046 186.266L135.891 182.833L135.888 182.833L135.046 186.266ZM99.1358 177.459L98.293 180.892L99.1358 177.459ZM70.5865 167.251L68.9977 170.41L68.9977 170.41L70.5865 167.251ZM38.1141 121.559L34.5977 121.926L34.5988 121.936L38.1141 121.559ZM43.185 93.3633L46.3652 94.9078L46.3704 94.8971L43.185 93.3633ZM94.3094 55.6701L94.8086 59.1701L94.8208 59.1684L94.833 59.1666L94.3094 55.6701ZM122.133 58.6173L120.808 61.895L120.815 61.898L120.823 61.901L122.133 58.6173ZM154.29 104.693L150.757 104.844L154.29 104.693ZM149.425 138.435L146.045 137.397L146.043 137.405L146.04 137.413L149.425 138.435ZM131.699 197.141L135.08 198.176L135.084 198.163L131.699 197.141ZM127.782 229.732L124.295 230.313L127.782 229.732ZM150.61 260.369L151.959 257.101L150.61 260.369ZM216.55 231.953L219.628 233.693L219.634 233.682L219.641 233.67L216.55 231.953ZM225.502 203.734L221.995 203.288L221.993 203.297L221.992 203.307L225.502 203.734ZM223.052 171.657L219.631 172.551L219.634 172.562L219.637 172.573L223.052 171.657ZM206.889 139.085L204.786 136.244L201.944 138.347L204.047 141.189L206.889 139.085ZM228.976 122.736L231.818 120.632L229.715 117.791L226.873 119.894L228.976 122.736ZM248.302 158.365L244.912 159.369L248.302 158.365ZM252.518 185.535L256.051 185.685L252.518 185.535ZM251.132 202.906L247.635 202.384L247.606 202.578L247.599 202.774L251.132 202.906ZM251.152 207.39L254.683 207.216L254.683 207.216L251.152 207.39ZM251.172 211.874L254.692 212.196L254.701 212.101L254.705 212.007L251.172 211.874ZM238.857 245.882L241.794 247.85L241.8 247.841L241.805 247.832L238.857 245.882ZM211.757 269.641C199.055 279.043 186.556 284.694 174.25 286.782L175.433 293.754C189.061 291.441 202.574 285.235 215.964 275.324L211.757 269.641ZM174.25 286.782C161.874 288.883 150.425 287.748 139.813 283.459L137.163 290.015C149.089 294.835 161.876 296.054 175.433 293.754L174.25 286.782ZM139.813 283.459C129.206 279.172 120.11 271.97 112.523 261.72L106.84 265.927C115.124 277.119 125.232 285.193 137.163 290.015L139.813 283.459ZM112.523 261.72C106.708 253.864 103.29 245.789 102.137 237.475L95.1328 238.447C96.4698 248.083 100.417 257.25 106.84 265.927L112.523 261.72ZM102.138 237.488C100.97 228.848 101.393 219.675 103.455 209.945L96.5382 208.478C94.3279 218.905 93.8421 228.899 95.1311 238.435L102.138 237.488ZM103.456 209.942C105.573 199.92 108.62 189.18 112.605 177.72L105.927 175.397C101.86 187.092 98.7266 198.121 96.5377 208.481L103.456 209.942ZM112.649 177.584L125.548 135.046L118.782 132.994L105.883 175.532L112.649 177.584ZM125.482 135.245C128.474 127.138 130.147 119.503 130.415 112.367L123.349 112.102C123.115 118.333 121.644 125.223 118.848 132.796L125.482 135.245ZM130.414 112.4C130.776 104.667 128.047 97.1283 122.668 89.8618L116.984 94.0686C121.645 100.365 123.619 106.338 123.351 112.069L130.414 112.4ZM122.668 89.8618C118.26 83.9073 111.504 80.3316 102.934 78.8044L101.694 85.7657C109.016 87.0705 113.934 89.9481 116.984 94.0686L122.668 89.8618ZM102.959 78.809C93.9992 77.1449 85.4942 79.39 77.6352 85.2073L81.8421 90.8906C88.3206 86.0951 94.8656 84.4976 101.668 85.761L102.959 78.809ZM77.6352 85.2073C72.0847 89.3159 68.1305 94.4597 65.9119 100.622L72.5648 103.017C74.2716 98.2763 77.3177 94.2396 81.8421 90.8906L77.6352 85.2073ZM65.9166 100.609C63.7793 106.473 63.0997 112.496 63.8936 118.63L70.906 117.722C70.2594 112.726 70.8054 107.845 72.56 103.03L65.9166 100.609ZM63.8962 118.65C64.7074 124.65 66.8144 130.013 70.2531 134.658L75.9364 130.451C73.256 126.83 71.5664 122.607 70.9034 117.702L63.8962 118.65ZM70.2531 134.658C74.0884 139.839 79.3192 143.964 85.8091 147.087L88.8754 140.716C83.2527 138.01 78.9852 134.57 75.9364 130.451L70.2531 134.658ZM85.861 147.112C92.1435 150.011 99.1821 152.504 106.962 154.604L108.804 147.777C101.342 145.763 94.6872 143.397 88.8235 140.692L85.861 147.112ZM107.01 154.616C114.654 156.563 122.523 158.542 130.616 160.555L132.322 153.693C124.242 151.683 116.386 149.707 108.755 147.764L107.01 154.616ZM130.603 160.552L303.986 204.358L305.718 197.502L132.335 153.696L130.603 160.552ZM302.748 198.089L275.236 218.454L279.443 224.137L306.955 203.772L302.748 198.089ZM278.184 217.862L135.891 182.833L134.201 189.699L276.494 224.728L278.184 217.862ZM135.888 182.833C122.699 179.6 110.729 176.664 99.9786 174.025L98.293 180.892C109.044 183.531 121.015 186.467 134.205 189.7L135.888 182.833ZM99.9787 174.025C89.438 171.438 80.1794 168.119 72.1752 164.093L68.9977 170.41C77.558 174.716 87.3323 178.202 98.293 180.892L99.9787 174.025ZM72.1752 164.093C64.4074 160.186 57.8207 154.597 52.3998 147.274L46.7165 151.481C52.7688 159.657 60.201 165.985 68.9977 170.41L72.1752 164.093ZM52.3998 147.274C46.1218 138.792 42.5854 130.104 41.6294 121.183L34.5988 121.936C35.7072 132.28 39.8002 142.137 46.7165 151.481L52.3998 147.274ZM41.6305 121.193C40.6854 112.122 42.2491 103.384 46.3652 94.9078L40.0047 91.8189C35.3289 101.447 33.512 111.506 34.5977 121.926L41.6305 121.193ZM46.3704 94.8971C50.4918 86.3376 57.1276 78.5941 66.4387 71.7019L62.2318 66.0186C52.168 73.468 44.7036 82.06 39.9995 91.8296L46.3704 94.8971ZM66.4387 71.7019C76.0156 64.6129 85.4675 60.5023 94.8086 59.1701L93.8102 52.1701C83.0772 53.7008 72.5464 58.3836 62.2318 66.0186L66.4387 71.7019ZM94.833 59.1666C104.258 57.7551 112.888 58.6929 120.808 61.895L123.458 55.3396C114.258 51.6201 104.339 50.5931 93.7858 52.1736L94.833 59.1666ZM120.823 61.901C128.725 65.0539 135.176 70.0246 140.234 76.8587L145.918 72.6518C140.077 64.761 132.565 58.9731 123.443 55.3336L120.823 61.901ZM140.234 76.8587C146.897 85.8602 150.343 95.1723 150.757 104.844L157.822 104.542C157.339 93.284 153.309 82.6377 145.918 72.6518L140.234 76.8587ZM150.757 104.844C151.186 114.835 149.642 125.677 146.045 137.397L152.805 139.472C156.591 127.133 158.291 115.48 157.822 104.542L150.757 104.844ZM146.04 137.413L128.315 196.119L135.084 198.163L152.809 139.456L146.04 137.413ZM128.319 196.106C124.207 209.537 122.742 221.004 124.295 230.313L131.269 229.15C129.973 221.375 131.119 211.114 135.08 198.176L128.319 196.106ZM124.295 230.313C125.022 234.673 125.838 238.378 126.756 241.39C127.658 244.347 128.731 246.882 130.089 248.717L135.773 244.511C135.123 243.633 134.334 241.998 133.52 239.328C132.722 236.713 131.967 233.333 131.269 229.15L124.295 230.313ZM130.089 248.717C135.065 255.439 141.476 260.424 149.262 263.637L151.959 257.101C145.351 254.374 139.976 250.189 135.773 244.511L130.089 248.717ZM149.262 263.637C157.069 266.859 165.449 267.874 174.324 266.747L173.433 259.732C165.679 260.717 158.546 259.819 151.959 257.101L149.262 263.637ZM174.324 266.747C183.335 265.602 191.991 261.879 200.273 255.748L196.067 250.065C188.591 255.598 181.053 258.764 173.433 259.732L174.324 266.747ZM200.273 255.748C208.179 249.896 214.631 242.531 219.628 233.693L213.472 230.213C208.945 238.222 203.144 244.825 196.067 250.065L200.273 255.748ZM219.641 233.67C224.592 224.755 227.706 214.906 229.012 204.16L221.992 203.307C220.789 213.212 217.936 222.176 213.459 230.237L219.641 233.67ZM229.009 204.179C230.391 193.311 229.527 182.156 226.467 170.742L219.637 172.573C222.481 183.18 223.25 193.409 221.995 203.288L229.009 204.179ZM226.473 170.764C223.455 159.205 217.845 147.943 209.731 136.982L204.047 141.189C211.709 151.539 216.875 161.993 219.631 172.551L226.473 170.764ZM208.992 141.927L231.08 125.577L226.873 119.894L204.786 136.244L208.992 141.927ZM226.135 124.839C235.749 137.828 241.94 149.329 244.912 159.369L251.692 157.362C248.401 146.245 241.708 133.993 231.818 120.632L226.135 124.839ZM244.912 159.369C247.979 169.73 249.284 178.375 248.986 185.385L256.051 185.685C256.394 177.625 254.888 168.157 251.692 157.362L244.912 159.369ZM248.986 185.385C248.667 192.88 248.211 198.524 247.635 202.384L254.628 203.428C255.26 199.197 255.728 193.26 256.051 185.685L248.986 185.385ZM247.599 202.774C247.537 204.412 247.544 206.009 247.62 207.564L254.683 207.216C254.617 205.878 254.61 204.486 254.664 203.039L247.599 202.774ZM247.62 207.564C247.686 208.902 247.693 210.295 247.639 211.741L254.705 212.007C254.766 210.369 254.759 208.772 254.683 207.216L247.62 207.564ZM247.651 211.552C246.621 222.826 242.735 233.608 235.908 243.932L241.805 247.832C249.224 236.615 253.548 224.725 254.692 212.196L247.651 211.552ZM235.919 243.915C228.954 254.314 220.896 262.876 211.757 269.641L215.964 275.324C225.812 268.034 234.418 258.862 241.794 247.85L235.919 243.915Z" fill="#A2A35C" fill-opacity="0.21" mask="url(#path-1-outside-1_4_53)"/>
</g>
<defs>
<filter id="filter0_b_4_53" x="-24.8018" y="-24.6058" width="356.861" height="369.042" filterUnits="userSpaceOnUse" color-interpolation-filters="sRGB">
<feFlood flood-opacity="0" result="BackgroundImageFix"/>
<feGaussianBlur in="BackgroundImageFix" stdDeviation="12.6"/>
<feComposite in2="SourceAlpha" operator="in" result="effect1_backgroundBlur_4_53"/>
<feBlend mode="normal" in="SourceGraphic" in2="effect1_backgroundBlur_4_53" result="shape"/>
</filter>
</defs>
</svg>
